<?xml version="1.0" encoding="UTF-8" standalone="no"?>
<svg width="500" zoomAndPan="magnify" viewBox="0 0 375 374.999991" height="500" preserveAspectRatio="xMidYMid meet" version="1.0" id="svg86" sodipodi:docname="rihleti-logo.svg" inkscape:version="1.4.2 (f4327f4, 2025-05-13)" xmlns:inkscape="http://www.inkscape.org/namespaces/inkscape" xmlns:sodipodi="http://sodipodi.sourceforge.net/DTD/sodipodi-0.dtd" xmlns="http://www.w3.org/2000/svg" xmlns:svg="http://www.w3.org/2000/svg">
	<sodipodi:namedview id="namedview86" pagecolor="#ffffff" bordercolor="#000000" borderopacity="0.25" inkscape:showpageshadow="2" inkscape:pageopacity="0.0" inkscape:pagecheckerboard="0" inkscape:deskcolor="#d1d1d1" inkscape:zoom="1.1780399" inkscape:cx="219.00786" inkscape:cy="236.40965" inkscape:window-width="1920" inkscape:window-height="1051" inkscape:window-x="-9" inkscape:window-y="-9" inkscape:window-maximized="1" inkscape:current-layer="svg86" />
	<defs id="defs3">
		<inkscape:path-effect effect="fillet_chamfer" id="path-effect86" is_visible="true" lpeversion="1" nodesatellites_param="F,0,0,1,0,0,0,1 @ F,0,0,1,0,0,0,1 @ F,0,0,1,0,0,0,1 @ F,0,0,1,0,0,0,1 @ F,0,0,1,0,0,0,1 @ F,0,0,1,0,0,0,1 @ F,0,0,1,0,0,0,1 @ F,0,0,1,0,0,0,1 @ F,0,0,1,0,0,0,1 @ F,0,0,1,0,0,0,1 @ F,0,0,1,0,0,0,1 @ F,0,0,1,0,0,0,1 @ F,0,0,1,0,0,0,1 @ F,0,0,1,0,0,0,1 @ F,0,0,1,0,0,0,1" radius="0" unit="px" method="auto" mode="F" chamfer_steps="1" flexible="false" use_knot_distance="true" apply_no_radius="true" apply_with_radius="true" only_selected="false" hide_knots="false" />
		<g id="g1" />
		<clipPath id="504f67e040">
			<path d="M 33 117 L 177 117 L 177 189 L 33 189 Z M 33 117 " clip-rule="nonzero" id="path1" />
		</clipPath>
		<clipPath id="f0e2c015f9">
			<path d="M 33.824219 114.863281 L 177.082031 129.457031 L 169.9375 199.59375 L 26.679688 185 Z M 33.824219 114.863281 " clip-rule="nonzero" id="path2" />
		</clipPath>
		<clipPath id="0aa2ac4962">
			<path d="M 33.824219 114.863281 L 177.082031 129.457031 L 169.9375 199.59375 L 26.679688 185 Z M 33.824219 114.863281 " clip-rule="nonzero" id="path3" />
		</clipPath>
	</defs>
	<g fill="#3e3a61" fill-opacity="1" id="g6">
		<g transform="translate(102.976188, 201.74827)" id="g5">
			<g id="g4">
				<path d="M 38.65625 26.796875 C 36.644531 27.953125 34.59375 28.816406 32.5 29.390625 C 30.40625 29.972656 28.296875 30.265625 26.171875 30.265625 C 23.066406 30.265625 20.097656 29.71875 17.265625 28.625 C 14.441406 27.53125 11.921875 26.007812 9.703125 24.0625 C 7.484375 22.125 5.734375 19.832031 4.453125 17.1875 C 3.179688 14.539062 2.546875 11.664062 2.546875 8.5625 C 2.546875 4.132812 3.0625 0.25 4.09375 -3.09375 C 5.132812 -6.4375 6.851562 -9.050781 9.25 -10.9375 C 11.65625 -12.820312 14.953125 -13.765625 19.140625 -13.765625 L 33.546875 -13.765625 C 33.546875 -13.765625 33.5 -13.320312 33.40625 -12.4375 C 33.320312 -11.5625 33.320312 -10.484375 33.40625 -9.203125 C 33.5 -7.929688 33.789062 -6.65625 34.28125 -5.375 C 34.769531 -4.101562 35.5625 -3.023438 36.65625 -2.140625 C 37.75 -1.265625 39.265625 -0.828125 41.203125 -0.828125 L 47.953125 -0.828125 L 47.953125 0 L 29.265625 0 C 27.441406 0 25.753906 -0.4375 24.203125 -1.3125 C 22.648438 -2.195312 21.414062 -3.367188 20.5 -4.828125 C 19.59375 -6.285156 19.140625 -7.898438 19.140625 -9.671875 L 19.140625 -12.765625 C 18.835938 -12.765625 18.1875 -12.71875 17.1875 -12.625 C 16.1875 -12.53125 15.03125 -12.269531 13.71875 -11.84375 C 12.414062 -11.425781 11.140625 -10.757812 9.890625 -9.84375 C 8.640625 -8.9375 7.601562 -7.660156 6.78125 -6.015625 C 5.96875 -4.378906 5.5625 -2.3125 5.5625 0.1875 C 5.5625 2.675781 6.320312 5.03125 7.84375 7.25 C 9.363281 9.46875 11.351562 11.242188 13.8125 12.578125 C 16.269531 13.921875 18.929688 14.59375 21.796875 14.59375 C 24.097656 14.59375 26.316406 14.101562 28.453125 13.125 C 32.398438 11.363281 36.425781 9.84375 40.53125 8.5625 C 44.632812 7.289062 48.382812 6.65625 51.78125 6.65625 C 52.8125 6.65625 53.828125 6.695312 54.828125 6.78125 C 55.835938 6.875 56.828125 7.078125 57.796875 7.390625 C 60.835938 8.171875 63.222656 9.394531 64.953125 11.0625 C 66.691406 12.738281 67.941406 14.472656 68.703125 16.265625 C 69.460938 18.066406 69.929688 19.601562 70.109375 20.875 C 70.296875 22.15625 70.390625 22.796875 70.390625 22.796875 C 68.203125 20.671875 65.984375 19.332031 63.734375 18.78125 C 62.023438 18.414062 60.09375 18.445312 57.9375 18.875 C 55.78125 19.300781 53.609375 19.9375 51.421875 20.78125 C 49.046875 21.695312 46.75 22.703125 44.53125 23.796875 C 42.3125 24.890625 40.351562 25.890625 38.65625 26.796875 Z M 66.921875 31 C 66.921875 32.945312 66.191406 34.617188 64.734375 36.015625 C 63.273438 37.410156 61.484375 38.109375 59.359375 38.109375 C 57.285156 38.109375 55.519531 37.410156 54.0625 36.015625 C 52.601562 34.617188 51.875 32.945312 51.875 31 C 51.875 29.050781 52.601562 27.363281 54.0625 25.9375 C 55.519531 24.507812 57.285156 23.796875 59.359375 23.796875 C 61.484375 23.796875 63.273438 24.507812 64.734375 25.9375 C 66.191406 27.363281 66.921875 29.050781 66.921875 31 Z M 50.96875 36.828125 C 50.96875 38.773438 50.238281 40.445312 48.78125 41.84375 C 47.320312 43.238281 45.554688 43.9375 43.484375 43.9375 C 41.421875 43.9375 39.644531 43.238281 38.15625 41.84375 C 36.664062 40.445312 35.921875 38.75 35.921875 36.75 C 35.921875 34.800781 36.664062 33.125 38.15625 31.71875 C 39.644531 30.320312 41.421875 29.625 43.484375 29.625 C 45.554688 29.625 47.320312 30.320312 48.78125 31.71875 C 50.238281 33.125 50.96875 34.828125 50.96875 36.828125 Z M 50.96875 36.828125 " id="path4" />
			</g>
		</g>
	</g>
	<g fill="#3e3a61" fill-opacity="1" id="g9">
		<g transform="translate(149.925532, 201.74827)" id="g8">
			<g id="g7">
				<path d="M 31.265625 -33.375 C 31.265625 -31.425781 30.566406 -29.75 29.171875 -28.34375 C 27.773438 -26.945312 26.070312 -26.25 24.0625 -26.25 C 22.125 -26.25 20.453125 -26.945312 19.046875 -28.34375 C 17.648438 -29.75 16.953125 -31.425781 16.953125 -33.375 C 16.953125 -35.3125 17.648438 -36.976562 19.046875 -38.375 C 20.453125 -39.78125 22.125 -40.484375 24.0625 -40.484375 C 26.070312 -40.484375 27.773438 -39.78125 29.171875 -38.375 C 30.566406 -36.976562 31.265625 -35.3125 31.265625 -33.375 Z M 15.6875 -33.375 C 15.6875 -31.425781 14.984375 -29.75 13.578125 -28.34375 C 12.179688 -26.945312 10.507812 -26.25 8.5625 -26.25 C 6.5625 -26.25 4.863281 -26.945312 3.46875 -28.34375 C 2.070312 -29.75 1.375 -31.425781 1.375 -33.375 C 1.375 -35.3125 2.070312 -36.976562 3.46875 -38.375 C 4.863281 -39.78125 6.5625 -40.484375 8.5625 -40.484375 C 10.507812 -40.484375 12.179688 -39.78125 13.578125 -38.375 C 14.984375 -36.976562 15.6875 -35.3125 15.6875 -33.375 Z M 28.453125 -0.828125 L 35.1875 -0.828125 L 35.1875 0 L -0.90625 0 L -0.90625 -0.828125 L 4.1875 -0.828125 C 5.707031 -0.828125 7.101562 -1.296875 8.375 -2.234375 C 9.65625 -3.171875 10.296875 -4.398438 10.296875 -5.921875 L 10.296875 -19.140625 L 26.078125 -20.96875 L 26.078125 -3.09375 C 26.078125 -2.488281 26.316406 -1.957031 26.796875 -1.5 C 27.285156 -1.050781 27.835938 -0.828125 28.453125 -0.828125 Z M 28.453125 -0.828125 " id="path6" />
			</g>
		</g>
	</g>
	<g fill="#3e3a61" fill-opacity="1" id="g12">
		<g transform="translate(184.567775, 201.74827)" id="g11">
			<g id="g10">
				<path d="M 28.078125 -0.828125 L 34.921875 -0.828125 L 34.921875 0 L -0.90625 0 L -0.90625 -0.828125 L 0.1875 -0.828125 C 1.707031 -0.828125 3.101562 -1.296875 4.375 -2.234375 C 5.65625 -3.171875 6.296875 -4.398438 6.296875 -5.921875 L 6.296875 -45.578125 L 22.15625 -47.3125 L 22.15625 -6.75 C 22.15625 -5.101562 22.734375 -3.703125 23.890625 -2.546875 C 25.046875 -1.398438 26.441406 -0.828125 28.078125 -0.828125 Z M 28.078125 -0.828125 " id="path9" />
			</g>
		</g>
	</g>
	<g fill="#3e3a61" fill-opacity="1" id="g15">
		<g transform="translate(218.663024, 201.74827)" id="g14">
			<g id="g13">
				<path d="M 54.0625 1.640625 C 51.269531 2.972656 48.472656 3.640625 45.671875 3.640625 C 41.660156 3.640625 38.015625 2.425781 34.734375 0 L -1.09375 0 L -1.09375 -0.828125 L 33.828125 -0.828125 C 33.828125 -0.828125 33.351562 -1.25 32.40625 -2.09375 C 31.46875 -2.945312 30.207031 -4.007812 28.625 -5.28125 C 27.039062 -6.5625 25.257812 -7.835938 23.28125 -9.109375 C 21.3125 -10.390625 19.28125 -11.453125 17.1875 -12.296875 C 15.09375 -13.148438 13.101562 -13.578125 11.21875 -13.578125 C 9.03125 -13.523438 6.6875 -12.644531 4.1875 -10.9375 C 4.1875 -10.9375 4.398438 -11.546875 4.828125 -12.765625 C 5.253906 -13.984375 6.015625 -15.394531 7.109375 -17 C 8.203125 -18.613281 9.722656 -20.085938 11.671875 -21.421875 C 13.617188 -22.765625 16.109375 -23.523438 19.140625 -23.703125 C 25.765625 -24.128906 32.390625 -21.242188 39.015625 -15.046875 C 40.472656 -13.648438 42.050781 -12.128906 43.75 -10.484375 C 45.457031 -8.835938 47.191406 -7.285156 48.953125 -5.828125 C 50.722656 -4.367188 52.457031 -3.171875 54.15625 -2.234375 C 55.851562 -1.296875 57.429688 -0.828125 58.890625 -0.828125 Z M 54.0625 1.640625 " id="path12" />
			</g>
		</g>
	</g>
	<g fill="#3e3a61" fill-opacity="1" id="g18">
		<g transform="translate(280.289745, 201.74827)" id="g17">
			<g id="g16">
				<path d="M 30.8125 -3.015625 C 30.8125 1.304688 29.625 5.078125 27.25 8.296875 C 24.882812 11.515625 21.5 14.003906 17.09375 15.765625 C 12.6875 17.535156 7.414062 18.421875 1.28125 18.421875 C 3.28125 18.421875 5.144531 17.78125 6.875 16.5 C 8.613281 15.226562 10.015625 13.507812 11.078125 11.34375 C 12.140625 9.1875 12.671875 6.863281 12.671875 4.375 L 12.671875 -18.515625 L 30.8125 -23.703125 Z M 30.8125 -3.015625 " id="path15" />
			</g>
		</g>
	</g>
	<g clip-path="url(#504f67e040)" id="g21">
		<g clip-path="url(#f0e2c015f9)" id="g20">
			<g clip-path="url(#0aa2ac4962)" id="g19">
				<path fill="#f05e2c" d="m 90.597656,156.37109 c 1.222413,1.97536 24.515534,38.67927 45.042974,1.29688 10.86328,-19.77344 19.1914,-30.46094 41.17968,-25.19922 0,0 -7.80602,4.35902 -13.15625,11.98047 -5.35023,7.62145 -28.55468,30.73828 -41.71875,31.45703 1.84375,0.73828 6.8042,1.54565 9.01563,1.32813 2.21143,-0.21752 4.61719,0.75 5.11328,3.13281 -4.53125,-0.8711 -20.12891,2.21094 -23.5625,4.33594 -3.42969,2.1289 -15.007814,7.55078 -23.07422,-0.008 1.898438,-0.0898 12.57422,-1 17.90625,-5.28906 C 99.183594,178.6717 85.933594,174.57404 76.820312,163.89826 67.730469,153.21857 46.273438,121.63654 33.488281,118.14045 l 10.997019,0.22164 c 20.224576,1.54995 27.592825,2.60662 46.112356,38.00896 z" fill-opacity="1" fill-rule="nonzero" id="path18" sodipodi:nodetypes="ccczczccccccccc" />
			</g>
		</g>
	</g>
	<g fill="#f05e2c" fill-opacity="1" id="g24">
		<g transform="translate(174.217306, 222.49489)" id="g23">
			<g id="g22" />
		</g>
	</g>
	<g fill="#f05e2c" fill-opacity="1" id="g27">
		<g transform="translate(178.304347, 222.49489)" id="g26">
			<g id="g25">
				<path d="M 5.6875 -0.828125 C 5.6875 -0.753906 5.679688 -0.671875 5.671875 -0.578125 C 5.660156 -0.492188 5.640625 -0.40625 5.609375 -0.3125 C 5.578125 -0.226562 5.53125 -0.15625 5.46875 -0.09375 C 5.414062 -0.03125 5.34375 0 5.25 0 L 4.953125 0 C 4.703125 0 4.488281 -0.0195312 4.3125 -0.0625 C 4.132812 -0.113281 3.976562 -0.195312 3.84375 -0.3125 C 3.707031 -0.4375 3.59375 -0.597656 3.5 -0.796875 C 3.40625 -0.992188 3.320312 -1.25 3.25 -1.5625 C 3.1875 -1.46875 3.109375 -1.367188 3.015625 -1.265625 C 2.929688 -1.171875 2.832031 -1.082031 2.71875 -1 C 2.613281 -0.925781 2.492188 -0.863281 2.359375 -0.8125 C 2.234375 -0.757812 2.101562 -0.734375 1.96875 -0.734375 C 1.851562 -0.734375 1.707031 -0.742188 1.53125 -0.765625 C 1.363281 -0.785156 1.203125 -0.820312 1.046875 -0.875 C 0.890625 -0.925781 0.75 -0.992188 0.625 -1.078125 C 0.507812 -1.160156 0.453125 -1.257812 0.453125 -1.375 C 0.453125 -1.4375 0.46875 -1.53125 0.5 -1.65625 C 0.539062 -1.78125 0.585938 -1.910156 0.640625 -2.046875 C 0.703125 -2.191406 0.769531 -2.335938 0.84375 -2.484375 C 0.914062 -2.628906 0.992188 -2.757812 1.078125 -2.875 C 1.148438 -2.976562 1.257812 -3.097656 1.40625 -3.234375 C 1.550781 -3.378906 1.707031 -3.519531 1.875 -3.65625 C 2.039062 -3.789062 2.207031 -3.910156 2.375 -4.015625 C 2.539062 -4.128906 2.671875 -4.207031 2.765625 -4.25 C 2.765625 -4.300781 2.757812 -4.34375 2.75 -4.375 C 2.75 -4.40625 2.75 -4.445312 2.75 -4.5 C 2.75 -4.539062 2.75 -4.566406 2.75 -4.578125 C 2.75 -4.597656 2.753906 -4.625 2.765625 -4.65625 C 2.773438 -4.78125 2.804688 -4.898438 2.859375 -5.015625 C 2.921875 -5.128906 2.988281 -5.234375 3.0625 -5.328125 C 3.144531 -5.429688 3.222656 -5.515625 3.296875 -5.578125 C 3.367188 -5.640625 3.425781 -5.671875 3.46875 -5.671875 C 3.476562 -5.671875 3.488281 -5.628906 3.5 -5.546875 C 3.507812 -5.472656 3.523438 -5.375 3.546875 -5.25 C 3.566406 -5.132812 3.585938 -5 3.609375 -4.84375 C 3.640625 -4.6875 3.671875 -4.53125 3.703125 -4.375 C 3.742188 -4.132812 3.785156 -3.894531 3.828125 -3.65625 C 3.867188 -3.414062 3.90625 -3.195312 3.9375 -3 C 3.96875 -2.800781 3.992188 -2.628906 4.015625 -2.484375 C 4.046875 -2.347656 4.070312 -2.257812 4.09375 -2.21875 C 4.113281 -2.125 4.132812 -2.039062 4.15625 -1.96875 C 4.1875 -1.90625 4.226562 -1.847656 4.28125 -1.796875 C 4.332031 -1.742188 4.410156 -1.703125 4.515625 -1.671875 C 4.617188 -1.648438 4.765625 -1.640625 4.953125 -1.640625 L 5.25 -1.640625 C 5.34375 -1.640625 5.414062 -1.609375 5.46875 -1.546875 C 5.53125 -1.484375 5.578125 -1.40625 5.609375 -1.3125 C 5.640625 -1.226562 5.660156 -1.140625 5.671875 -1.046875 C 5.679688 -0.960938 5.6875 -0.890625 5.6875 -0.828125 Z M 3.09375 -2.40625 C 3.070312 -2.53125 3.039062 -2.695312 3 -2.90625 C 2.96875 -3.113281 2.9375 -3.3125 2.90625 -3.5 C 2.707031 -3.414062 2.523438 -3.316406 2.359375 -3.203125 C 2.191406 -3.085938 2.050781 -2.972656 1.9375 -2.859375 C 1.832031 -2.753906 1.75 -2.660156 1.6875 -2.578125 C 1.625 -2.492188 1.59375 -2.445312 1.59375 -2.4375 C 1.59375 -2.414062 1.625 -2.394531 1.6875 -2.375 C 1.757812 -2.363281 1.84375 -2.347656 1.9375 -2.328125 C 2.039062 -2.316406 2.148438 -2.304688 2.265625 -2.296875 C 2.390625 -2.285156 2.507812 -2.28125 2.625 -2.28125 C 2.75 -2.28125 2.84375 -2.289062 2.90625 -2.3125 C 2.976562 -2.332031 3.039062 -2.363281 3.09375 -2.40625 Z M 3.671875 -8.328125 C 3.703125 -8.328125 3.773438 -8.289062 3.890625 -8.21875 C 4.003906 -8.144531 4.117188 -8.0625 4.234375 -7.96875 C 4.359375 -7.875 4.46875 -7.78125 4.5625 -7.6875 C 4.65625 -7.601562 4.703125 -7.550781 4.703125 -7.53125 C 4.703125 -7.507812 4.6875 -7.46875 4.65625 -7.40625 C 4.625 -7.34375 4.582031 -7.269531 4.53125 -7.1875 C 4.488281 -7.101562 4.4375 -7.015625 4.375 -6.921875 C 4.3125 -6.828125 4.25 -6.738281 4.1875 -6.65625 C 4.132812 -6.582031 4.082031 -6.519531 4.03125 -6.46875 C 3.988281 -6.414062 3.960938 -6.390625 3.953125 -6.390625 C 3.929688 -6.390625 3.867188 -6.425781 3.765625 -6.5 C 3.660156 -6.582031 3.546875 -6.664062 3.421875 -6.75 L 2.953125 -7.125 C 2.921875 -7.15625 2.882812 -7.171875 2.84375 -7.171875 C 2.820312 -7.171875 2.800781 -7.144531 2.78125 -7.09375 C 2.65625 -6.925781 2.546875 -6.773438 2.453125 -6.640625 C 2.367188 -6.515625 2.285156 -6.40625 2.203125 -6.3125 C 2.117188 -6.21875 2.066406 -6.171875 2.046875 -6.171875 C 2.035156 -6.171875 2 -6.1875 1.9375 -6.21875 C 1.882812 -6.257812 1.816406 -6.304688 1.734375 -6.359375 C 1.660156 -6.421875 1.578125 -6.484375 1.484375 -6.546875 C 1.398438 -6.609375 1.320312 -6.664062 1.25 -6.71875 C 1.175781 -6.78125 1.113281 -6.832031 1.0625 -6.875 C 1.019531 -6.925781 1 -6.960938 1 -6.984375 C 1 -7.003906 1.015625 -7.046875 1.046875 -7.109375 C 1.085938 -7.171875 1.132812 -7.242188 1.1875 -7.328125 C 1.238281 -7.421875 1.296875 -7.515625 1.359375 -7.609375 C 1.421875 -7.703125 1.476562 -7.785156 1.53125 -7.859375 C 1.59375 -7.941406 1.644531 -8.007812 1.6875 -8.0625 C 1.726562 -8.113281 1.753906 -8.140625 1.765625 -8.140625 C 1.804688 -8.140625 1.878906 -8.097656 1.984375 -8.015625 C 2.085938 -7.941406 2.195312 -7.863281 2.3125 -7.78125 C 2.457031 -7.664062 2.601562 -7.546875 2.75 -7.421875 C 2.78125 -7.378906 2.8125 -7.359375 2.84375 -7.359375 C 2.851562 -7.359375 2.863281 -7.363281 2.875 -7.375 C 2.894531 -7.382812 2.921875 -7.410156 2.953125 -7.453125 C 3.066406 -7.609375 3.175781 -7.753906 3.28125 -7.890625 C 3.363281 -7.992188 3.441406 -8.09375 3.515625 -8.1875 C 3.597656 -8.28125 3.648438 -8.328125 3.671875 -8.328125 Z M 3.671875 -8.328125 " id="path24" />
			</g>
		</g>
	</g>
	<g fill="#f05e2c" fill-opacity="1" id="g30">
		<g transform="translate(183.453061, 222.49489)" id="g29">
			<g id="g28">
				<path d="M 8.28125 -3.546875 C 8.28125 -3.535156 8.269531 -3.472656 8.25 -3.359375 C 8.238281 -3.253906 8.21875 -3.132812 8.1875 -3 C 8.164062 -2.863281 8.144531 -2.738281 8.125 -2.625 C 8.101562 -2.507812 8.085938 -2.4375 8.078125 -2.40625 C 8.078125 -2.382812 8.003906 -2.367188 7.859375 -2.359375 C 7.722656 -2.347656 7.53125 -2.335938 7.28125 -2.328125 C 7.039062 -2.316406 6.757812 -2.3125 6.4375 -2.3125 C 6.125 -2.3125 5.78125 -2.3125 5.40625 -2.3125 C 5.15625 -2.3125 4.921875 -2.269531 4.703125 -2.1875 C 4.484375 -2.101562 4.265625 -1.992188 4.046875 -1.859375 C 3.835938 -1.734375 3.628906 -1.585938 3.421875 -1.421875 C 3.210938 -1.265625 3 -1.101562 2.78125 -0.9375 C 2.601562 -0.8125 2.421875 -0.691406 2.234375 -0.578125 C 2.046875 -0.472656 1.84375 -0.375 1.625 -0.28125 C 1.40625 -0.195312 1.175781 -0.128906 0.9375 -0.078125 C 0.707031 -0.0234375 0.46875 0 0.21875 0 L -0.09375 0 C -0.195312 0 -0.273438 -0.03125 -0.328125 -0.09375 C -0.390625 -0.15625 -0.4375 -0.226562 -0.46875 -0.3125 C -0.5 -0.40625 -0.515625 -0.492188 -0.515625 -0.578125 C -0.523438 -0.671875 -0.53125 -0.753906 -0.53125 -0.828125 C -0.53125 -0.890625 -0.523438 -0.960938 -0.515625 -1.046875 C -0.515625 -1.140625 -0.5 -1.226562 -0.46875 -1.3125 C -0.4375 -1.40625 -0.390625 -1.484375 -0.328125 -1.546875 C -0.273438 -1.609375 -0.195312 -1.640625 -0.09375 -1.640625 L 0.203125 -1.640625 C 0.609375 -1.640625 1.023438 -1.660156 1.453125 -1.703125 C 1.878906 -1.742188 2.273438 -1.84375 2.640625 -2 C 2.742188 -2.039062 2.847656 -2.085938 2.953125 -2.140625 C 3.066406 -2.191406 3.179688 -2.242188 3.296875 -2.296875 C 3.410156 -2.359375 3.519531 -2.410156 3.625 -2.453125 C 3.738281 -2.492188 3.847656 -2.523438 3.953125 -2.546875 C 3.835938 -2.597656 3.691406 -2.664062 3.515625 -2.75 C 3.335938 -2.832031 3.140625 -2.914062 2.921875 -3 C 2.710938 -3.082031 2.492188 -3.148438 2.265625 -3.203125 C 2.035156 -3.265625 1.8125 -3.296875 1.59375 -3.296875 C 1.476562 -3.296875 1.363281 -3.28125 1.25 -3.25 C 1.144531 -3.21875 1.050781 -3.175781 0.96875 -3.125 C 0.882812 -3.082031 0.8125 -3.039062 0.75 -3 C 0.6875 -2.96875 0.648438 -2.953125 0.640625 -2.953125 C 0.628906 -2.953125 0.609375 -2.957031 0.578125 -2.96875 C 0.554688 -2.988281 0.53125 -3.003906 0.5 -3.015625 C 0.476562 -3.023438 0.457031 -3.035156 0.4375 -3.046875 C 0.414062 -3.066406 0.40625 -3.082031 0.40625 -3.09375 C 0.40625 -3.195312 0.421875 -3.3125 0.453125 -3.4375 C 0.492188 -3.570312 0.546875 -3.703125 0.609375 -3.828125 C 0.671875 -3.960938 0.75 -4.085938 0.84375 -4.203125 C 0.945312 -4.328125 1.054688 -4.429688 1.171875 -4.515625 C 1.304688 -4.609375 1.453125 -4.6875 1.609375 -4.75 C 1.765625 -4.8125 1.972656 -4.84375 2.234375 -4.84375 C 2.398438 -4.84375 2.59375 -4.800781 2.8125 -4.71875 C 3.03125 -4.644531 3.253906 -4.550781 3.484375 -4.4375 C 3.722656 -4.332031 3.957031 -4.226562 4.1875 -4.125 C 4.425781 -4.019531 4.640625 -3.945312 4.828125 -3.90625 C 5.117188 -3.84375 5.429688 -3.78125 5.765625 -3.71875 C 6.097656 -3.664062 6.472656 -3.628906 6.890625 -3.609375 C 7.023438 -3.609375 7.171875 -3.601562 7.328125 -3.59375 C 7.484375 -3.59375 7.632812 -3.585938 7.78125 -3.578125 C 7.925781 -3.578125 8.046875 -3.570312 8.140625 -3.5625 C 8.234375 -3.5625 8.28125 -3.554688 8.28125 -3.546875 Z M 8.28125 -3.546875 " id="path27" />
			</g>
		</g>
	</g>
	<g fill="#f05e2c" fill-opacity="1" id="g33">
		<g transform="translate(192.393464, 222.49489)" id="g32">
			<g id="g31">
				<path d="M 2.953125 0 C 2.484375 0 2.097656 -0.117188 1.796875 -0.359375 C 1.503906 -0.609375 1.3125 -1.019531 1.21875 -1.59375 C 1.15625 -1.96875 1.09375 -2.425781 1.03125 -2.96875 C 0.96875 -3.519531 0.898438 -4.125 0.828125 -4.78125 C 0.804688 -5.019531 0.78125 -5.222656 0.75 -5.390625 C 0.726562 -5.566406 0.707031 -5.71875 0.6875 -5.84375 C 0.675781 -5.96875 0.664062 -6.078125 0.65625 -6.171875 C 0.644531 -6.273438 0.640625 -6.367188 0.640625 -6.453125 C 0.640625 -6.535156 0.675781 -6.65625 0.75 -6.8125 C 0.832031 -6.96875 0.925781 -7.128906 1.03125 -7.296875 C 1.132812 -7.460938 1.226562 -7.601562 1.3125 -7.71875 C 1.40625 -7.84375 1.460938 -7.90625 1.484375 -7.90625 C 1.535156 -7.90625 1.585938 -7.867188 1.640625 -7.796875 C 1.691406 -7.734375 1.722656 -7.648438 1.734375 -7.546875 C 1.765625 -6.785156 1.789062 -6.125 1.8125 -5.5625 C 1.84375 -5 1.867188 -4.507812 1.890625 -4.09375 C 1.910156 -3.675781 1.925781 -3.316406 1.9375 -3.015625 C 1.957031 -2.722656 1.984375 -2.472656 2.015625 -2.265625 C 2.023438 -2.140625 2.054688 -2.035156 2.109375 -1.953125 C 2.171875 -1.867188 2.242188 -1.800781 2.328125 -1.75 C 2.410156 -1.707031 2.503906 -1.675781 2.609375 -1.65625 C 2.722656 -1.644531 2.835938 -1.640625 2.953125 -1.640625 L 3.234375 -1.640625 C 3.359375 -1.640625 3.457031 -1.585938 3.53125 -1.484375 C 3.601562 -1.378906 3.640625 -1.175781 3.640625 -0.875 C 3.640625 -0.550781 3.597656 -0.320312 3.515625 -0.1875 C 3.441406 -0.0625 3.347656 0 3.234375 0 Z M 2.953125 0 " id="path30" />
			</g>
		</g>
	</g>
	<g fill="#f05e2c" fill-opacity="1" id="g42">
		<g transform="translate(195.498657, 222.49489)" id="g35">
			<g id="g34">
				<path d="M 2.953125 -0.828125 C 2.953125 -0.703125 2.945312 -0.585938 2.9375 -0.484375 C 2.9375 -0.390625 2.925781 -0.304688 2.90625 -0.234375 C 2.882812 -0.160156 2.851562 -0.101562 2.8125 -0.0625 C 2.769531 -0.0195312 2.710938 0 2.640625 0 L -0.15625 0 C -0.238281 0 -0.300781 -0.0195312 -0.34375 -0.0625 C -0.382812 -0.101562 -0.414062 -0.160156 -0.4375 -0.234375 C -0.457031 -0.304688 -0.46875 -0.390625 -0.46875 -0.484375 C -0.476562 -0.585938 -0.484375 -0.703125 -0.484375 -0.828125 C -0.484375 -0.941406 -0.476562 -1.046875 -0.46875 -1.140625 C -0.46875 -1.242188 -0.457031 -1.332031 -0.4375 -1.40625 C -0.414062 -1.476562 -0.382812 -1.535156 -0.34375 -1.578125 C -0.300781 -1.617188 -0.238281 -1.640625 -0.15625 -1.640625 L 2.640625 -1.640625 C 2.710938 -1.640625 2.769531 -1.617188 2.8125 -1.578125 C 2.851562 -1.535156 2.882812 -1.476562 2.90625 -1.40625 C 2.925781 -1.332031 2.9375 -1.242188 2.9375 -1.140625 C 2.945312 -1.046875 2.953125 -0.941406 2.953125 -0.828125 Z M 2.953125 -0.828125 " id="path33" />
			</g>
		</g>
		<g transform="translate(197.973233, 222.49489)" id="g37">
			<g id="g36">
				<path d="M 2.953125 -0.828125 C 2.953125 -0.703125 2.945312 -0.585938 2.9375 -0.484375 C 2.9375 -0.390625 2.925781 -0.304688 2.90625 -0.234375 C 2.882812 -0.160156 2.851562 -0.101562 2.8125 -0.0625 C 2.769531 -0.0195312 2.710938 0 2.640625 0 L -0.15625 0 C -0.238281 0 -0.300781 -0.0195312 -0.34375 -0.0625 C -0.382812 -0.101562 -0.414062 -0.160156 -0.4375 -0.234375 C -0.457031 -0.304688 -0.46875 -0.390625 -0.46875 -0.484375 C -0.476562 -0.585938 -0.484375 -0.703125 -0.484375 -0.828125 C -0.484375 -0.941406 -0.476562 -1.046875 -0.46875 -1.140625 C -0.46875 -1.242188 -0.457031 -1.332031 -0.4375 -1.40625 C -0.414062 -1.476562 -0.382812 -1.535156 -0.34375 -1.578125 C -0.300781 -1.617188 -0.238281 -1.640625 -0.15625 -1.640625 L 2.640625 -1.640625 C 2.710938 -1.640625 2.769531 -1.617188 2.8125 -1.578125 C 2.851562 -1.535156 2.882812 -1.476562 2.90625 -1.40625 C 2.925781 -1.332031 2.9375 -1.242188 2.9375 -1.140625 C 2.945312 -1.046875 2.953125 -0.941406 2.953125 -0.828125 Z M 2.953125 -0.828125 " id="path35" />
			</g>
		</g>
		<g transform="translate(200.447808, 222.49489)" id="g39">
			<g id="g38">
				<path d="M 2.953125 -0.828125 C 2.953125 -0.703125 2.945312 -0.585938 2.9375 -0.484375 C 2.9375 -0.390625 2.925781 -0.304688 2.90625 -0.234375 C 2.882812 -0.160156 2.851562 -0.101562 2.8125 -0.0625 C 2.769531 -0.0195312 2.710938 0 2.640625 0 L -0.15625 0 C -0.238281 0 -0.300781 -0.0195312 -0.34375 -0.0625 C -0.382812 -0.101562 -0.414062 -0.160156 -0.4375 -0.234375 C -0.457031 -0.304688 -0.46875 -0.390625 -0.46875 -0.484375 C -0.476562 -0.585938 -0.484375 -0.703125 -0.484375 -0.828125 C -0.484375 -0.941406 -0.476562 -1.046875 -0.46875 -1.140625 C -0.46875 -1.242188 -0.457031 -1.332031 -0.4375 -1.40625 C -0.414062 -1.476562 -0.382812 -1.535156 -0.34375 -1.578125 C -0.300781 -1.617188 -0.238281 -1.640625 -0.15625 -1.640625 L 2.640625 -1.640625 C 2.710938 -1.640625 2.769531 -1.617188 2.8125 -1.578125 C 2.851562 -1.535156 2.882812 -1.476562 2.90625 -1.40625 C 2.925781 -1.332031 2.9375 -1.242188 2.9375 -1.140625 C 2.945312 -1.046875 2.953125 -0.941406 2.953125 -0.828125 Z M 2.953125 -0.828125 " id="path37" />
			</g>
		</g>
		<g transform="translate(202.922384, 222.49489)" id="g41">
			<g id="g40">
				<path d="M 2.953125 -0.828125 C 2.953125 -0.703125 2.945312 -0.585938 2.9375 -0.484375 C 2.9375 -0.390625 2.925781 -0.304688 2.90625 -0.234375 C 2.882812 -0.160156 2.851562 -0.101562 2.8125 -0.0625 C 2.769531 -0.0195312 2.710938 0 2.640625 0 L -0.15625 0 C -0.238281 0 -0.300781 -0.0195312 -0.34375 -0.0625 C -0.382812 -0.101562 -0.414062 -0.160156 -0.4375 -0.234375 C -0.457031 -0.304688 -0.46875 -0.390625 -0.46875 -0.484375 C -0.476562 -0.585938 -0.484375 -0.703125 -0.484375 -0.828125 C -0.484375 -0.941406 -0.476562 -1.046875 -0.46875 -1.140625 C -0.46875 -1.242188 -0.457031 -1.332031 -0.4375 -1.40625 C -0.414062 -1.476562 -0.382812 -1.535156 -0.34375 -1.578125 C -0.300781 -1.617188 -0.238281 -1.640625 -0.15625 -1.640625 L 2.640625 -1.640625 C 2.710938 -1.640625 2.769531 -1.617188 2.8125 -1.578125 C 2.851562 -1.535156 2.882812 -1.476562 2.90625 -1.40625 C 2.925781 -1.332031 2.9375 -1.242188 2.9375 -1.140625 C 2.945312 -1.046875 2.953125 -0.941406 2.953125 -0.828125 Z M 2.953125 -0.828125 " id="path39" />
			</g>
		</g>
	</g>
	<g fill="#f05e2c" fill-opacity="1" id="g45">
		<g transform="translate(205.39696, 222.49489)" id="g44">
			<g id="g43">
				<path d="M 3.953125 -0.828125 C 3.953125 -0.566406 3.925781 -0.363281 3.875 -0.21875 C 3.832031 -0.0703125 3.710938 0 3.515625 0 L 3.203125 0 C 3.054688 0 2.929688 -0.015625 2.828125 -0.046875 C 2.734375 -0.0859375 2.632812 -0.15625 2.53125 -0.25 C 2.4375 -0.320312 2.347656 -0.414062 2.265625 -0.53125 C 2.191406 -0.65625 2.128906 -0.796875 2.078125 -0.953125 C 1.984375 -0.828125 1.878906 -0.707031 1.765625 -0.59375 C 1.660156 -0.476562 1.53125 -0.375 1.375 -0.28125 C 1.226562 -0.195312 1.054688 -0.128906 0.859375 -0.078125 C 0.671875 -0.0234375 0.453125 0 0.203125 0 L -0.09375 0 C -0.195312 0 -0.273438 -0.015625 -0.328125 -0.046875 C -0.390625 -0.0859375 -0.4375 -0.140625 -0.46875 -0.203125 C -0.5 -0.273438 -0.515625 -0.363281 -0.515625 -0.46875 C -0.523438 -0.570312 -0.53125 -0.691406 -0.53125 -0.828125 C -0.53125 -0.953125 -0.523438 -1.0625 -0.515625 -1.15625 C -0.515625 -1.257812 -0.5 -1.347656 -0.46875 -1.421875 C -0.4375 -1.492188 -0.390625 -1.546875 -0.328125 -1.578125 C -0.273438 -1.617188 -0.195312 -1.640625 -0.09375 -1.640625 L 0.203125 -1.640625 C 0.472656 -1.640625 0.710938 -1.660156 0.921875 -1.703125 C 1.128906 -1.753906 1.300781 -1.820312 1.4375 -1.90625 C 1.582031 -1.988281 1.703125 -2.070312 1.796875 -2.15625 C 1.890625 -2.25 1.96875 -2.332031 2.03125 -2.40625 C 2.101562 -2.488281 2.160156 -2.554688 2.203125 -2.609375 C 2.242188 -2.660156 2.285156 -2.6875 2.328125 -2.6875 C 2.359375 -2.6875 2.390625 -2.660156 2.421875 -2.609375 C 2.460938 -2.554688 2.503906 -2.4375 2.546875 -2.25 C 2.566406 -2.175781 2.585938 -2.101562 2.609375 -2.03125 C 2.640625 -1.957031 2.675781 -1.890625 2.71875 -1.828125 C 2.769531 -1.773438 2.832031 -1.726562 2.90625 -1.6875 C 2.988281 -1.65625 3.085938 -1.640625 3.203125 -1.640625 L 3.515625 -1.640625 C 3.710938 -1.640625 3.832031 -1.566406 3.875 -1.421875 C 3.925781 -1.285156 3.953125 -1.085938 3.953125 -0.828125 Z M 2.53125 0.640625 C 2.5625 0.640625 2.632812 0.675781 2.75 0.75 C 2.863281 0.820312 2.976562 0.90625 3.09375 1 C 3.21875 1.09375 3.328125 1.179688 3.421875 1.265625 C 3.515625 1.359375 3.5625 1.414062 3.5625 1.4375 C 3.5625 1.457031 3.546875 1.5 3.515625 1.5625 C 3.484375 1.625 3.441406 1.695312 3.390625 1.78125 C 3.347656 1.863281 3.296875 1.953125 3.234375 2.046875 C 3.171875 2.140625 3.109375 2.222656 3.046875 2.296875 C 2.992188 2.378906 2.941406 2.445312 2.890625 2.5 C 2.847656 2.550781 2.820312 2.578125 2.8125 2.578125 C 2.789062 2.578125 2.726562 2.535156 2.625 2.453125 C 2.519531 2.378906 2.40625 2.300781 2.28125 2.21875 L 1.8125 1.84375 C 1.78125 1.8125 1.742188 1.796875 1.703125 1.796875 C 1.679688 1.796875 1.660156 1.820312 1.640625 1.875 C 1.515625 2.039062 1.40625 2.191406 1.3125 2.328125 C 1.226562 2.453125 1.144531 2.5625 1.0625 2.65625 C 0.976562 2.75 0.925781 2.796875 0.90625 2.796875 C 0.894531 2.796875 0.859375 2.773438 0.796875 2.734375 C 0.742188 2.703125 0.675781 2.65625 0.59375 2.59375 C 0.519531 2.539062 0.4375 2.484375 0.34375 2.421875 C 0.257812 2.359375 0.179688 2.296875 0.109375 2.234375 C 0.0351562 2.179688 -0.0195312 2.128906 -0.0625 2.078125 C -0.113281 2.035156 -0.140625 2.003906 -0.140625 1.984375 C -0.140625 1.960938 -0.117188 1.921875 -0.078125 1.859375 C -0.046875 1.796875 -0.00390625 1.71875 0.046875 1.625 C 0.0976562 1.539062 0.15625 1.453125 0.21875 1.359375 C 0.28125 1.265625 0.335938 1.175781 0.390625 1.09375 C 0.453125 1.019531 0.503906 0.957031 0.546875 0.90625 C 0.585938 0.851562 0.613281 0.828125 0.625 0.828125 C 0.664062 0.828125 0.738281 0.863281 0.84375 0.9375 C 0.945312 1.019531 1.054688 1.101562 1.171875 1.1875 C 1.316406 1.300781 1.460938 1.421875 1.609375 1.546875 C 1.640625 1.585938 1.671875 1.609375 1.703125 1.609375 C 1.710938 1.609375 1.722656 1.601562 1.734375 1.59375 C 1.753906 1.582031 1.78125 1.554688 1.8125 1.515625 C 1.925781 1.359375 2.035156 1.210938 2.140625 1.078125 C 2.222656 0.972656 2.300781 0.875 2.375 0.78125 C 2.457031 0.6875 2.507812 0.640625 2.53125 0.640625 Z M 2.53125 0.640625 " id="path42" />
			</g>
		</g>
	</g>
	<g fill="#f05e2c" fill-opacity="1" id="g48">
		<g transform="translate(208.805488, 222.49489)" id="g47">
			<g id="g46">
				<path d="M 9.296875 -0.734375 C 9.296875 -0.671875 9.296875 -0.597656 9.296875 -0.515625 C 9.296875 -0.429688 9.285156 -0.347656 9.265625 -0.265625 C 9.242188 -0.191406 9.207031 -0.128906 9.15625 -0.078125 C 9.113281 -0.0234375 9.039062 0 8.9375 0 L 8.640625 0 C 8.234375 0 7.898438 -0.117188 7.640625 -0.359375 C 7.378906 -0.609375 7.171875 -0.960938 7.015625 -1.421875 C 6.867188 -1.035156 6.703125 -0.734375 6.515625 -0.515625 C 6.335938 -0.304688 6.097656 -0.203125 5.796875 -0.203125 C 5.503906 -0.203125 5.28125 -0.273438 5.125 -0.421875 C 4.976562 -0.578125 4.875 -0.789062 4.8125 -1.0625 C 4.613281 -0.695312 4.390625 -0.429688 4.140625 -0.265625 C 3.890625 -0.0976562 3.566406 -0.015625 3.171875 -0.015625 C 3.046875 -0.015625 2.921875 -0.03125 2.796875 -0.0625 C 2.679688 -0.09375 2.566406 -0.144531 2.453125 -0.21875 C 2.347656 -0.289062 2.25 -0.390625 2.15625 -0.515625 C 2.0625 -0.640625 1.976562 -0.796875 1.90625 -0.984375 C 1.800781 -0.796875 1.679688 -0.640625 1.546875 -0.515625 C 1.410156 -0.390625 1.265625 -0.285156 1.109375 -0.203125 C 0.953125 -0.128906 0.796875 -0.078125 0.640625 -0.046875 C 0.484375 -0.015625 0.335938 0 0.203125 0 L -0.09375 0 C -0.195312 0 -0.273438 -0.0234375 -0.328125 -0.078125 C -0.390625 -0.128906 -0.4375 -0.191406 -0.46875 -0.265625 C -0.5 -0.347656 -0.515625 -0.429688 -0.515625 -0.515625 C -0.523438 -0.597656 -0.53125 -0.671875 -0.53125 -0.734375 C -0.53125 -0.804688 -0.523438 -0.890625 -0.515625 -0.984375 C -0.515625 -1.085938 -0.5 -1.1875 -0.46875 -1.28125 C -0.4375 -1.375 -0.390625 -1.457031 -0.328125 -1.53125 C -0.273438 -1.601562 -0.195312 -1.640625 -0.09375 -1.640625 L 0.203125 -1.640625 C 0.484375 -1.640625 0.722656 -1.671875 0.921875 -1.734375 C 1.128906 -1.796875 1.300781 -1.875 1.4375 -1.96875 C 1.570312 -2.0625 1.679688 -2.164062 1.765625 -2.28125 C 1.859375 -2.394531 1.929688 -2.5 1.984375 -2.59375 C 2.046875 -2.695312 2.09375 -2.78125 2.125 -2.84375 C 2.164062 -2.90625 2.203125 -2.9375 2.234375 -2.9375 C 2.296875 -2.9375 2.34375 -2.90625 2.375 -2.84375 C 2.40625 -2.78125 2.429688 -2.703125 2.453125 -2.609375 C 2.472656 -2.515625 2.492188 -2.410156 2.515625 -2.296875 C 2.546875 -2.191406 2.59375 -2.09375 2.65625 -2 C 2.726562 -1.90625 2.820312 -1.828125 2.9375 -1.765625 C 3.0625 -1.703125 3.226562 -1.671875 3.4375 -1.671875 C 3.65625 -1.671875 3.847656 -1.707031 4.015625 -1.78125 C 4.179688 -1.851562 4.328125 -1.941406 4.453125 -2.046875 C 4.578125 -2.148438 4.679688 -2.257812 4.765625 -2.375 C 4.859375 -2.5 4.929688 -2.613281 4.984375 -2.71875 C 5.046875 -2.832031 5.09375 -2.925781 5.125 -3 C 5.164062 -3.070312 5.203125 -3.109375 5.234375 -3.109375 C 5.328125 -3.109375 5.382812 -3.09375 5.40625 -3.0625 C 5.4375 -3.03125 5.457031 -2.972656 5.46875 -2.890625 C 5.46875 -2.847656 5.472656 -2.773438 5.484375 -2.671875 C 5.492188 -2.578125 5.519531 -2.476562 5.5625 -2.375 C 5.601562 -2.269531 5.660156 -2.175781 5.734375 -2.09375 C 5.804688 -2.019531 5.914062 -1.984375 6.0625 -1.984375 C 6.257812 -1.984375 6.421875 -2.039062 6.546875 -2.15625 C 6.671875 -2.28125 6.769531 -2.414062 6.84375 -2.5625 C 6.925781 -2.707031 6.988281 -2.835938 7.03125 -2.953125 C 7.082031 -3.078125 7.125 -3.140625 7.15625 -3.140625 C 7.300781 -3.140625 7.375 -3.078125 7.375 -2.953125 C 7.375 -2.859375 7.398438 -2.738281 7.453125 -2.59375 C 7.515625 -2.445312 7.597656 -2.300781 7.703125 -2.15625 C 7.804688 -2.019531 7.9375 -1.898438 8.09375 -1.796875 C 8.25 -1.691406 8.429688 -1.640625 8.640625 -1.640625 L 8.9375 -1.640625 C 9.039062 -1.640625 9.113281 -1.601562 9.15625 -1.53125 C 9.207031 -1.457031 9.242188 -1.375 9.265625 -1.28125 C 9.285156 -1.1875 9.296875 -1.085938 9.296875 -0.984375 C 9.296875 -0.890625 9.296875 -0.804688 9.296875 -0.734375 Z M 9.296875 -0.734375 " id="path45" />
			</g>
		</g>
	</g>
	<g fill="#f05e2c" fill-opacity="1" id="g51">
		<g transform="translate(217.578258, 222.49489)" id="g50">
			<g id="g49">
				<path d="M 2.3125 -3.15625 C 2.3125 -3.09375 2.304688 -3.003906 2.296875 -2.890625 C 2.285156 -2.785156 2.269531 -2.671875 2.25 -2.546875 C 2.226562 -2.421875 2.195312 -2.285156 2.15625 -2.140625 C 2.125 -1.992188 2.082031 -1.847656 2.03125 -1.703125 C 1.957031 -1.515625 1.863281 -1.316406 1.75 -1.109375 C 1.644531 -0.910156 1.519531 -0.726562 1.375 -0.5625 C 1.226562 -0.394531 1.054688 -0.257812 0.859375 -0.15625 C 0.671875 -0.0507812 0.457031 0 0.21875 0 L -0.09375 0 C -0.195312 0 -0.273438 -0.015625 -0.328125 -0.046875 C -0.390625 -0.0859375 -0.4375 -0.140625 -0.46875 -0.203125 C -0.5 -0.273438 -0.515625 -0.363281 -0.515625 -0.46875 C -0.523438 -0.570312 -0.53125 -0.691406 -0.53125 -0.828125 C -0.53125 -0.921875 -0.523438 -1.015625 -0.515625 -1.109375 C -0.515625 -1.210938 -0.5 -1.300781 -0.46875 -1.375 C -0.4375 -1.457031 -0.390625 -1.519531 -0.328125 -1.5625 C -0.273438 -1.613281 -0.195312 -1.640625 -0.09375 -1.640625 L 0.21875 -1.640625 C 0.414062 -1.640625 0.597656 -1.648438 0.765625 -1.671875 C 0.941406 -1.703125 1.09375 -1.753906 1.21875 -1.828125 C 1.34375 -1.898438 1.441406 -1.992188 1.515625 -2.109375 C 1.585938 -2.222656 1.625 -2.363281 1.625 -2.53125 C 1.625 -2.632812 1.601562 -2.789062 1.5625 -3 C 1.53125 -3.21875 1.484375 -3.46875 1.421875 -3.75 C 1.359375 -4.039062 1.296875 -4.347656 1.234375 -4.671875 C 1.171875 -4.992188 1.109375 -5.3125 1.046875 -5.625 C 0.984375 -5.9375 0.929688 -6.234375 0.890625 -6.515625 C 0.859375 -6.796875 0.84375 -7.039062 0.84375 -7.25 C 0.84375 -7.382812 0.867188 -7.523438 0.921875 -7.671875 C 0.972656 -7.816406 1.039062 -7.945312 1.125 -8.0625 C 1.207031 -8.1875 1.296875 -8.285156 1.390625 -8.359375 C 1.492188 -8.429688 1.582031 -8.46875 1.65625 -8.46875 C 1.664062 -8.46875 1.691406 -8.4375 1.734375 -8.375 C 1.785156 -8.320312 1.84375 -8.253906 1.90625 -8.171875 C 1.976562 -8.085938 2.050781 -7.992188 2.125 -7.890625 C 2.207031 -7.796875 2.28125 -7.707031 2.34375 -7.625 C 2.414062 -7.539062 2.472656 -7.46875 2.515625 -7.40625 C 2.554688 -7.34375 2.578125 -7.3125 2.578125 -7.3125 C 2.578125 -7.300781 2.550781 -7.273438 2.5 -7.234375 C 2.457031 -7.191406 2.40625 -7.132812 2.34375 -7.0625 C 2.28125 -6.988281 2.222656 -6.898438 2.171875 -6.796875 C 2.117188 -6.691406 2.09375 -6.578125 2.09375 -6.453125 C 2.09375 -6.242188 2.101562 -5.992188 2.125 -5.703125 C 2.144531 -5.421875 2.171875 -5.128906 2.203125 -4.828125 C 2.234375 -4.523438 2.257812 -4.226562 2.28125 -3.9375 C 2.300781 -3.644531 2.3125 -3.382812 2.3125 -3.15625 Z M 2.3125 -3.15625 " id="path48" />
			</g>
		</g>
	</g>
	<g fill="#f05e2c" fill-opacity="1" id="g58">
		<g transform="translate(220.859066, 222.49489)" id="g53">
			<g id="g52">
				<path d="M 2.203125 -2.078125 C 2.203125 -1.972656 2.1875 -1.84375 2.15625 -1.6875 C 2.132812 -1.539062 2.101562 -1.390625 2.0625 -1.234375 C 2.03125 -1.078125 1.988281 -0.921875 1.9375 -0.765625 C 1.882812 -0.617188 1.832031 -0.484375 1.78125 -0.359375 C 1.738281 -0.234375 1.695312 -0.132812 1.65625 -0.0625 C 1.613281 0.0078125 1.582031 0.046875 1.5625 0.046875 C 1.507812 0.046875 1.453125 0.03125 1.390625 0 C 1.328125 -0.0195312 1.296875 -0.0507812 1.296875 -0.09375 C 1.296875 -0.113281 1.300781 -0.140625 1.3125 -0.171875 C 1.332031 -0.210938 1.347656 -0.273438 1.359375 -0.359375 C 1.367188 -0.441406 1.378906 -0.539062 1.390625 -0.65625 C 1.410156 -0.78125 1.421875 -0.929688 1.421875 -1.109375 C 1.421875 -1.265625 1.398438 -1.484375 1.359375 -1.765625 C 1.316406 -2.046875 1.269531 -2.351562 1.21875 -2.6875 C 1.164062 -3.03125 1.101562 -3.382812 1.03125 -3.75 C 0.957031 -4.113281 0.894531 -4.453125 0.84375 -4.765625 C 0.789062 -5.085938 0.742188 -5.359375 0.703125 -5.578125 C 0.660156 -5.804688 0.640625 -5.960938 0.640625 -6.046875 C 0.640625 -6.160156 0.664062 -6.304688 0.71875 -6.484375 C 0.769531 -6.660156 0.832031 -6.835938 0.90625 -7.015625 C 0.988281 -7.191406 1.082031 -7.359375 1.1875 -7.515625 C 1.300781 -7.679688 1.421875 -7.804688 1.546875 -7.890625 C 1.597656 -7.804688 1.632812 -7.707031 1.65625 -7.59375 C 1.6875 -7.476562 1.703125 -7.382812 1.703125 -7.3125 L 1.703125 -6.71875 Z M 2.203125 -2.078125 " id="path51" />
			</g>
		</g>
		<g transform="translate(223.708819, 222.49489)" id="g55">
			<g id="g54">
				<path d="M 4.796875 -1.390625 C 4.796875 -1.023438 4.757812 -0.644531 4.6875 -0.25 C 4.613281 0.132812 4.507812 0.515625 4.375 0.890625 C 4.238281 1.273438 4.070312 1.640625 3.875 1.984375 C 3.6875 2.328125 3.476562 2.625 3.25 2.875 C 3.019531 3.132812 2.769531 3.335938 2.5 3.484375 C 2.226562 3.640625 1.953125 3.71875 1.671875 3.71875 C 1.503906 3.71875 1.332031 3.6875 1.15625 3.625 C 0.976562 3.5625 0.804688 3.476562 0.640625 3.375 C 0.472656 3.28125 0.3125 3.175781 0.15625 3.0625 C 0.0078125 2.945312 -0.117188 2.835938 -0.234375 2.734375 C -0.347656 2.640625 -0.4375 2.554688 -0.5 2.484375 C -0.570312 2.410156 -0.609375 2.367188 -0.609375 2.359375 C -0.609375 2.347656 -0.597656 2.328125 -0.578125 2.296875 C -0.566406 2.273438 -0.550781 2.25 -0.53125 2.21875 C -0.507812 2.1875 -0.488281 2.160156 -0.46875 2.140625 C -0.445312 2.117188 -0.429688 2.109375 -0.421875 2.109375 C -0.398438 2.109375 -0.351562 2.125 -0.28125 2.15625 C -0.21875 2.195312 -0.132812 2.238281 -0.03125 2.28125 C 0.0703125 2.332031 0.191406 2.375 0.328125 2.40625 C 0.460938 2.445312 0.609375 2.46875 0.765625 2.46875 C 1.160156 2.46875 1.554688 2.378906 1.953125 2.203125 C 2.347656 2.035156 2.703125 1.8125 3.015625 1.53125 C 3.328125 1.257812 3.578125 0.953125 3.765625 0.609375 C 3.953125 0.265625 4.046875 -0.0703125 4.046875 -0.40625 C 4.046875 -0.539062 4.046875 -0.664062 4.046875 -0.78125 C 4.046875 -0.90625 4.035156 -1.023438 4.015625 -1.140625 C 3.953125 -1.023438 3.878906 -0.925781 3.796875 -0.84375 C 3.710938 -0.757812 3.625 -0.6875 3.53125 -0.625 C 3.4375 -0.570312 3.347656 -0.53125 3.265625 -0.5 C 3.179688 -0.476562 3.109375 -0.46875 3.046875 -0.46875 C 2.929688 -0.46875 2.8125 -0.492188 2.6875 -0.546875 C 2.5625 -0.597656 2.445312 -0.675781 2.34375 -0.78125 C 2.238281 -0.882812 2.148438 -1.007812 2.078125 -1.15625 C 2.003906 -1.3125 1.96875 -1.476562 1.96875 -1.65625 C 1.96875 -1.800781 1.984375 -1.960938 2.015625 -2.140625 C 2.054688 -2.328125 2.113281 -2.519531 2.1875 -2.71875 C 2.257812 -2.914062 2.335938 -3.109375 2.421875 -3.296875 C 2.515625 -3.492188 2.613281 -3.671875 2.71875 -3.828125 C 2.820312 -3.984375 2.925781 -4.109375 3.03125 -4.203125 C 3.144531 -4.296875 3.253906 -4.34375 3.359375 -4.34375 C 3.515625 -4.34375 3.675781 -4.273438 3.84375 -4.140625 C 4.019531 -4.015625 4.175781 -3.828125 4.3125 -3.578125 C 4.457031 -3.328125 4.570312 -3.019531 4.65625 -2.65625 C 4.75 -2.289062 4.796875 -1.867188 4.796875 -1.390625 Z M 3.4375 -2.390625 C 3.382812 -2.460938 3.316406 -2.539062 3.234375 -2.625 C 3.160156 -2.707031 3.078125 -2.75 2.984375 -2.75 C 2.921875 -2.75 2.867188 -2.71875 2.828125 -2.65625 C 2.785156 -2.59375 2.765625 -2.507812 2.765625 -2.40625 C 2.765625 -2.332031 2.785156 -2.269531 2.828125 -2.21875 C 2.878906 -2.164062 2.941406 -2.140625 3.015625 -2.140625 C 3.117188 -2.140625 3.207031 -2.164062 3.28125 -2.21875 C 3.351562 -2.269531 3.40625 -2.328125 3.4375 -2.390625 Z M 3.4375 -2.390625 " id="path53" />
			</g>
		</g>
		<g transform="translate(228.921393, 222.49489)" id="g57">
			<g id="g56" />
		</g>
	</g>
	<g fill="#f05e2c" fill-opacity="1" id="g61">
		<g transform="translate(233.008434, 222.49489)" id="g60">
			<g id="g59">
				<path d="M 5.703125 -0.828125 C 5.703125 -0.753906 5.695312 -0.671875 5.6875 -0.578125 C 5.6875 -0.492188 5.671875 -0.40625 5.640625 -0.3125 C 5.609375 -0.226562 5.5625 -0.15625 5.5 -0.09375 C 5.445312 -0.03125 5.367188 0 5.265625 0 L 4.96875 0 C 4.925781 0 4.863281 -0.00390625 4.78125 -0.015625 C 4.695312 -0.0234375 4.625 -0.0507812 4.5625 -0.09375 C 4.539062 0.125 4.507812 0.363281 4.46875 0.625 C 4.425781 0.894531 4.363281 1.160156 4.28125 1.421875 C 4.207031 1.691406 4.109375 1.957031 3.984375 2.21875 C 3.867188 2.476562 3.722656 2.71875 3.546875 2.9375 C 3.441406 3.0625 3.3125 3.179688 3.15625 3.296875 C 3.007812 3.421875 2.84375 3.53125 2.65625 3.625 C 2.46875 3.71875 2.265625 3.789062 2.046875 3.84375 C 1.835938 3.90625 1.628906 3.9375 1.421875 3.9375 C 1.316406 3.9375 1.191406 3.914062 1.046875 3.875 C 0.898438 3.84375 0.742188 3.800781 0.578125 3.75 C 0.410156 3.695312 0.242188 3.640625 0.078125 3.578125 C -0.078125 3.515625 -0.21875 3.453125 -0.34375 3.390625 C -0.476562 3.335938 -0.585938 3.285156 -0.671875 3.234375 C -0.753906 3.191406 -0.796875 3.164062 -0.796875 3.15625 C -0.796875 3.132812 -0.789062 3.109375 -0.78125 3.078125 C -0.78125 3.046875 -0.773438 3.007812 -0.765625 2.96875 C -0.765625 2.9375 -0.753906 2.90625 -0.734375 2.875 C -0.722656 2.851562 -0.710938 2.84375 -0.703125 2.84375 C -0.679688 2.84375 -0.617188 2.847656 -0.515625 2.859375 C -0.421875 2.878906 -0.265625 2.890625 -0.046875 2.890625 C 0.171875 2.890625 0.410156 2.859375 0.671875 2.796875 C 0.929688 2.742188 1.195312 2.660156 1.46875 2.546875 C 1.738281 2.441406 2.003906 2.3125 2.265625 2.15625 C 2.523438 2 2.765625 1.8125 2.984375 1.59375 C 3.328125 1.238281 3.570312 0.945312 3.71875 0.71875 C 3.863281 0.5 3.9375 0.359375 3.9375 0.296875 C 3.9375 0.273438 3.910156 0.226562 3.859375 0.15625 C 3.816406 0.09375 3.757812 0.0195312 3.6875 -0.0625 C 3.625 -0.144531 3.550781 -0.234375 3.46875 -0.328125 C 3.394531 -0.429688 3.320312 -0.523438 3.25 -0.609375 C 3.1875 -0.691406 3.132812 -0.765625 3.09375 -0.828125 C 3.050781 -0.890625 3.03125 -0.929688 3.03125 -0.953125 C 3.03125 -0.960938 3.039062 -1 3.0625 -1.0625 C 3.09375 -1.132812 3.128906 -1.210938 3.171875 -1.296875 C 3.210938 -1.390625 3.257812 -1.488281 3.3125 -1.59375 C 3.363281 -1.707031 3.410156 -1.8125 3.453125 -1.90625 C 3.503906 -2.007812 3.546875 -2.09375 3.578125 -2.15625 C 3.609375 -2.226562 3.628906 -2.273438 3.640625 -2.296875 L 3.84375 -2.296875 C 3.894531 -2.234375 3.953125 -2.164062 4.015625 -2.09375 C 4.085938 -2.019531 4.164062 -1.945312 4.25 -1.875 C 4.34375 -1.800781 4.445312 -1.742188 4.5625 -1.703125 C 4.6875 -1.660156 4.820312 -1.640625 4.96875 -1.640625 L 5.265625 -1.640625 C 5.367188 -1.640625 5.445312 -1.609375 5.5 -1.546875 C 5.5625 -1.484375 5.609375 -1.40625 5.640625 -1.3125 C 5.671875 -1.226562 5.6875 -1.140625 5.6875 -1.046875 C 5.695312 -0.960938 5.703125 -0.890625 5.703125 -0.828125 Z M 5.703125 -0.828125 " id="path58" />
			</g>
		</g>
	</g>
	<g fill="#f05e2c" fill-opacity="1" id="g64">
		<g transform="translate(238.173113, 222.49489)" id="g63">
			<g id="g62">
				<path d="M 5.578125 -0.828125 C 5.578125 -0.753906 5.570312 -0.671875 5.5625 -0.578125 C 5.550781 -0.492188 5.53125 -0.40625 5.5 -0.3125 C 5.476562 -0.226562 5.4375 -0.15625 5.375 -0.09375 C 5.320312 -0.03125 5.242188 0 5.140625 0 L 4.84375 0 C 4.550781 0 4.273438 -0.0195312 4.015625 -0.0625 C 3.765625 -0.113281 3.535156 -0.171875 3.328125 -0.234375 C 3.117188 -0.304688 2.929688 -0.378906 2.765625 -0.453125 C 2.597656 -0.535156 2.46875 -0.601562 2.375 -0.65625 C 2.269531 -0.601562 2.132812 -0.535156 1.96875 -0.453125 C 1.8125 -0.378906 1.640625 -0.304688 1.453125 -0.234375 C 1.265625 -0.171875 1.0625 -0.113281 0.84375 -0.0625 C 0.625 -0.0195312 0.410156 0 0.203125 0 L -0.09375 0 C -0.195312 0 -0.273438 -0.03125 -0.328125 -0.09375 C -0.390625 -0.15625 -0.4375 -0.226562 -0.46875 -0.3125 C -0.5 -0.40625 -0.515625 -0.492188 -0.515625 -0.578125 C -0.523438 -0.671875 -0.53125 -0.753906 -0.53125 -0.828125 C -0.53125 -0.890625 -0.523438 -0.960938 -0.515625 -1.046875 C -0.515625 -1.140625 -0.5 -1.226562 -0.46875 -1.3125 C -0.4375 -1.40625 -0.390625 -1.484375 -0.328125 -1.546875 C -0.273438 -1.609375 -0.195312 -1.640625 -0.09375 -1.640625 L 0.203125 -1.640625 C 0.398438 -1.640625 0.601562 -1.648438 0.8125 -1.671875 C 1.03125 -1.703125 1.203125 -1.734375 1.328125 -1.765625 C 1.304688 -1.804688 1.285156 -1.878906 1.265625 -1.984375 C 1.242188 -2.097656 1.234375 -2.210938 1.234375 -2.328125 C 1.234375 -2.472656 1.253906 -2.632812 1.296875 -2.8125 C 1.335938 -2.988281 1.394531 -3.164062 1.46875 -3.34375 C 1.550781 -3.519531 1.644531 -3.695312 1.75 -3.875 C 1.851562 -4.0625 1.960938 -4.234375 2.078125 -4.390625 C 2.191406 -4.535156 2.304688 -4.671875 2.421875 -4.796875 C 2.546875 -4.921875 2.664062 -5.03125 2.78125 -5.125 C 2.894531 -5.21875 3.007812 -5.289062 3.125 -5.34375 C 3.238281 -5.394531 3.347656 -5.421875 3.453125 -5.421875 C 3.640625 -5.421875 3.800781 -5.351562 3.9375 -5.21875 C 4.070312 -5.082031 4.179688 -4.914062 4.265625 -4.71875 C 4.359375 -4.53125 4.425781 -4.332031 4.46875 -4.125 C 4.519531 -3.925781 4.546875 -3.753906 4.546875 -3.609375 C 4.546875 -2.984375 4.300781 -2.378906 3.8125 -1.796875 C 3.96875 -1.742188 4.128906 -1.703125 4.296875 -1.671875 C 4.472656 -1.648438 4.65625 -1.640625 4.84375 -1.640625 L 5.140625 -1.640625 C 5.242188 -1.640625 5.320312 -1.609375 5.375 -1.546875 C 5.4375 -1.484375 5.476562 -1.40625 5.5 -1.3125 C 5.53125 -1.226562 5.550781 -1.140625 5.5625 -1.046875 C 5.570312 -0.960938 5.578125 -0.890625 5.578125 -0.828125 Z M 3.859375 -3.140625 C 3.859375 -3.179688 3.835938 -3.238281 3.796875 -3.3125 C 3.765625 -3.394531 3.707031 -3.472656 3.625 -3.546875 C 3.550781 -3.617188 3.460938 -3.679688 3.359375 -3.734375 C 3.253906 -3.785156 3.132812 -3.8125 3 -3.8125 C 2.925781 -3.8125 2.835938 -3.789062 2.734375 -3.75 C 2.628906 -3.707031 2.53125 -3.660156 2.4375 -3.609375 C 2.34375 -3.554688 2.257812 -3.492188 2.1875 -3.421875 C 2.113281 -3.359375 2.078125 -3.296875 2.078125 -3.234375 C 2.078125 -3.171875 2.101562 -3.09375 2.15625 -3 C 2.21875 -2.914062 2.285156 -2.828125 2.359375 -2.734375 C 2.441406 -2.648438 2.53125 -2.566406 2.625 -2.484375 C 2.71875 -2.398438 2.800781 -2.332031 2.875 -2.28125 C 3.007812 -2.34375 3.132812 -2.40625 3.25 -2.46875 C 3.363281 -2.539062 3.460938 -2.613281 3.546875 -2.6875 C 3.640625 -2.757812 3.710938 -2.832031 3.765625 -2.90625 C 3.828125 -2.988281 3.859375 -3.066406 3.859375 -3.140625 Z M 4.21875 -7.4375 C 4.21875 -7.414062 4.195312 -7.367188 4.15625 -7.296875 C 4.125 -7.234375 4.082031 -7.15625 4.03125 -7.0625 C 3.976562 -6.976562 3.914062 -6.882812 3.84375 -6.78125 C 3.78125 -6.675781 3.71875 -6.582031 3.65625 -6.5 C 3.601562 -6.414062 3.546875 -6.347656 3.484375 -6.296875 C 3.429688 -6.242188 3.394531 -6.21875 3.375 -6.21875 C 3.363281 -6.21875 3.296875 -6.253906 3.171875 -6.328125 C 3.054688 -6.398438 2.929688 -6.484375 2.796875 -6.578125 C 2.660156 -6.679688 2.535156 -6.78125 2.421875 -6.875 C 2.316406 -6.96875 2.265625 -7.03125 2.265625 -7.0625 C 2.265625 -7.082031 2.28125 -7.125 2.3125 -7.1875 C 2.351562 -7.257812 2.398438 -7.335938 2.453125 -7.421875 C 2.515625 -7.515625 2.578125 -7.613281 2.640625 -7.71875 C 2.703125 -7.820312 2.765625 -7.914062 2.828125 -8 C 2.890625 -8.082031 2.941406 -8.148438 2.984375 -8.203125 C 3.035156 -8.253906 3.070312 -8.28125 3.09375 -8.28125 C 3.125 -8.28125 3.195312 -8.238281 3.3125 -8.15625 C 3.4375 -8.082031 3.566406 -7.992188 3.703125 -7.890625 C 3.835938 -7.796875 3.957031 -7.703125 4.0625 -7.609375 C 4.164062 -7.515625 4.21875 -7.457031 4.21875 -7.4375 Z M 4.21875 -7.4375 " id="path61" />
			</g>
		</g>
	</g>
	<g fill="#f05e2c" fill-opacity="1" id="g77">
		<g transform="translate(243.218055, 222.49489)" id="g66">
			<g id="g65">
				<path d="M 2.953125 -0.828125 C 2.953125 -0.703125 2.945312 -0.585938 2.9375 -0.484375 C 2.9375 -0.390625 2.925781 -0.304688 2.90625 -0.234375 C 2.882812 -0.160156 2.851562 -0.101562 2.8125 -0.0625 C 2.769531 -0.0195312 2.710938 0 2.640625 0 L -0.15625 0 C -0.238281 0 -0.300781 -0.0195312 -0.34375 -0.0625 C -0.382812 -0.101562 -0.414062 -0.160156 -0.4375 -0.234375 C -0.457031 -0.304688 -0.46875 -0.390625 -0.46875 -0.484375 C -0.476562 -0.585938 -0.484375 -0.703125 -0.484375 -0.828125 C -0.484375 -0.941406 -0.476562 -1.046875 -0.46875 -1.140625 C -0.46875 -1.242188 -0.457031 -1.332031 -0.4375 -1.40625 C -0.414062 -1.476562 -0.382812 -1.535156 -0.34375 -1.578125 C -0.300781 -1.617188 -0.238281 -1.640625 -0.15625 -1.640625 L 2.640625 -1.640625 C 2.710938 -1.640625 2.769531 -1.617188 2.8125 -1.578125 C 2.851562 -1.535156 2.882812 -1.476562 2.90625 -1.40625 C 2.925781 -1.332031 2.9375 -1.242188 2.9375 -1.140625 C 2.945312 -1.046875 2.953125 -0.941406 2.953125 -0.828125 Z M 2.953125 -0.828125 " id="path64" />
			</g>
		</g>
		<g transform="translate(245.69263, 222.49489)" id="g68">
			<g id="g67">
				<path d="M 2.953125 -0.828125 C 2.953125 -0.703125 2.945312 -0.585938 2.9375 -0.484375 C 2.9375 -0.390625 2.925781 -0.304688 2.90625 -0.234375 C 2.882812 -0.160156 2.851562 -0.101562 2.8125 -0.0625 C 2.769531 -0.0195312 2.710938 0 2.640625 0 L -0.15625 0 C -0.238281 0 -0.300781 -0.0195312 -0.34375 -0.0625 C -0.382812 -0.101562 -0.414062 -0.160156 -0.4375 -0.234375 C -0.457031 -0.304688 -0.46875 -0.390625 -0.46875 -0.484375 C -0.476562 -0.585938 -0.484375 -0.703125 -0.484375 -0.828125 C -0.484375 -0.941406 -0.476562 -1.046875 -0.46875 -1.140625 C -0.46875 -1.242188 -0.457031 -1.332031 -0.4375 -1.40625 C -0.414062 -1.476562 -0.382812 -1.535156 -0.34375 -1.578125 C -0.300781 -1.617188 -0.238281 -1.640625 -0.15625 -1.640625 L 2.640625 -1.640625 C 2.710938 -1.640625 2.769531 -1.617188 2.8125 -1.578125 C 2.851562 -1.535156 2.882812 -1.476562 2.90625 -1.40625 C 2.925781 -1.332031 2.9375 -1.242188 2.9375 -1.140625 C 2.945312 -1.046875 2.953125 -0.941406 2.953125 -0.828125 Z M 2.953125 -0.828125 " id="path66" />
			</g>
		</g>
		<g transform="translate(248.167206, 222.49489)" id="g70">
			<g id="g69">
				<path d="M 2.953125 -0.828125 C 2.953125 -0.703125 2.945312 -0.585938 2.9375 -0.484375 C 2.9375 -0.390625 2.925781 -0.304688 2.90625 -0.234375 C 2.882812 -0.160156 2.851562 -0.101562 2.8125 -0.0625 C 2.769531 -0.0195312 2.710938 0 2.640625 0 L -0.15625 0 C -0.238281 0 -0.300781 -0.0195312 -0.34375 -0.0625 C -0.382812 -0.101562 -0.414062 -0.160156 -0.4375 -0.234375 C -0.457031 -0.304688 -0.46875 -0.390625 -0.46875 -0.484375 C -0.476562 -0.585938 -0.484375 -0.703125 -0.484375 -0.828125 C -0.484375 -0.941406 -0.476562 -1.046875 -0.46875 -1.140625 C -0.46875 -1.242188 -0.457031 -1.332031 -0.4375 -1.40625 C -0.414062 -1.476562 -0.382812 -1.535156 -0.34375 -1.578125 C -0.300781 -1.617188 -0.238281 -1.640625 -0.15625 -1.640625 L 2.640625 -1.640625 C 2.710938 -1.640625 2.769531 -1.617188 2.8125 -1.578125 C 2.851562 -1.535156 2.882812 -1.476562 2.90625 -1.40625 C 2.925781 -1.332031 2.9375 -1.242188 2.9375 -1.140625 C 2.945312 -1.046875 2.953125 -0.941406 2.953125 -0.828125 Z M 2.953125 -0.828125 " id="path68" />
			</g>
		</g>
		<g transform="translate(250.641782, 222.49489)" id="g72">
			<g id="g71">
				<path d="M 2.953125 -0.828125 C 2.953125 -0.703125 2.945312 -0.585938 2.9375 -0.484375 C 2.9375 -0.390625 2.925781 -0.304688 2.90625 -0.234375 C 2.882812 -0.160156 2.851562 -0.101562 2.8125 -0.0625 C 2.769531 -0.0195312 2.710938 0 2.640625 0 L -0.15625 0 C -0.238281 0 -0.300781 -0.0195312 -0.34375 -0.0625 C -0.382812 -0.101562 -0.414062 -0.160156 -0.4375 -0.234375 C -0.457031 -0.304688 -0.46875 -0.390625 -0.46875 -0.484375 C -0.476562 -0.585938 -0.484375 -0.703125 -0.484375 -0.828125 C -0.484375 -0.941406 -0.476562 -1.046875 -0.46875 -1.140625 C -0.46875 -1.242188 -0.457031 -1.332031 -0.4375 -1.40625 C -0.414062 -1.476562 -0.382812 -1.535156 -0.34375 -1.578125 C -0.300781 -1.617188 -0.238281 -1.640625 -0.15625 -1.640625 L 2.640625 -1.640625 C 2.710938 -1.640625 2.769531 -1.617188 2.8125 -1.578125 C 2.851562 -1.535156 2.882812 -1.476562 2.90625 -1.40625 C 2.925781 -1.332031 2.9375 -1.242188 2.9375 -1.140625 C 2.945312 -1.046875 2.953125 -0.941406 2.953125 -0.828125 Z M 2.953125 -0.828125 " id="path70" />
			</g>
		</g>
		<g transform="translate(253.116357, 222.49489)" id="g74">
			<g id="g73">
				<path d="M 2.953125 -0.828125 C 2.953125 -0.703125 2.945312 -0.585938 2.9375 -0.484375 C 2.9375 -0.390625 2.925781 -0.304688 2.90625 -0.234375 C 2.882812 -0.160156 2.851562 -0.101562 2.8125 -0.0625 C 2.769531 -0.0195312 2.710938 0 2.640625 0 L -0.15625 0 C -0.238281 0 -0.300781 -0.0195312 -0.34375 -0.0625 C -0.382812 -0.101562 -0.414062 -0.160156 -0.4375 -0.234375 C -0.457031 -0.304688 -0.46875 -0.390625 -0.46875 -0.484375 C -0.476562 -0.585938 -0.484375 -0.703125 -0.484375 -0.828125 C -0.484375 -0.941406 -0.476562 -1.046875 -0.46875 -1.140625 C -0.46875 -1.242188 -0.457031 -1.332031 -0.4375 -1.40625 C -0.414062 -1.476562 -0.382812 -1.535156 -0.34375 -1.578125 C -0.300781 -1.617188 -0.238281 -1.640625 -0.15625 -1.640625 L 2.640625 -1.640625 C 2.710938 -1.640625 2.769531 -1.617188 2.8125 -1.578125 C 2.851562 -1.535156 2.882812 -1.476562 2.90625 -1.40625 C 2.925781 -1.332031 2.9375 -1.242188 2.9375 -1.140625 C 2.945312 -1.046875 2.953125 -0.941406 2.953125 -0.828125 Z M 2.953125 -0.828125 " id="path72" />
			</g>
		</g>
		<g transform="translate(255.590933, 222.49489)" id="g76">
			<g id="g75">
				<path d="M 2.953125 -0.828125 C 2.953125 -0.703125 2.945312 -0.585938 2.9375 -0.484375 C 2.9375 -0.390625 2.925781 -0.304688 2.90625 -0.234375 C 2.882812 -0.160156 2.851562 -0.101562 2.8125 -0.0625 C 2.769531 -0.0195312 2.710938 0 2.640625 0 L -0.15625 0 C -0.238281 0 -0.300781 -0.0195312 -0.34375 -0.0625 C -0.382812 -0.101562 -0.414062 -0.160156 -0.4375 -0.234375 C -0.457031 -0.304688 -0.46875 -0.390625 -0.46875 -0.484375 C -0.476562 -0.585938 -0.484375 -0.703125 -0.484375 -0.828125 C -0.484375 -0.941406 -0.476562 -1.046875 -0.46875 -1.140625 C -0.46875 -1.242188 -0.457031 -1.332031 -0.4375 -1.40625 C -0.414062 -1.476562 -0.382812 -1.535156 -0.34375 -1.578125 C -0.300781 -1.617188 -0.238281 -1.640625 -0.15625 -1.640625 L 2.640625 -1.640625 C 2.710938 -1.640625 2.769531 -1.617188 2.8125 -1.578125 C 2.851562 -1.535156 2.882812 -1.476562 2.90625 -1.40625 C 2.925781 -1.332031 2.9375 -1.242188 2.9375 -1.140625 C 2.945312 -1.046875 2.953125 -0.941406 2.953125 -0.828125 Z M 2.953125 -0.828125 " id="path74" />
			</g>
		</g>
	</g>
	<g fill="#f05e2c" fill-opacity="1" id="g80">
		<g transform="translate(258.065509, 222.49489)" id="g79">
			<g id="g78">
				<path d="M 9.296875 -0.734375 C 9.296875 -0.671875 9.296875 -0.597656 9.296875 -0.515625 C 9.296875 -0.429688 9.285156 -0.347656 9.265625 -0.265625 C 9.242188 -0.191406 9.207031 -0.128906 9.15625 -0.078125 C 9.113281 -0.0234375 9.039062 0 8.9375 0 L 8.640625 0 C 8.234375 0 7.898438 -0.117188 7.640625 -0.359375 C 7.378906 -0.609375 7.171875 -0.960938 7.015625 -1.421875 C 6.867188 -1.035156 6.703125 -0.734375 6.515625 -0.515625 C 6.335938 -0.304688 6.097656 -0.203125 5.796875 -0.203125 C 5.503906 -0.203125 5.28125 -0.273438 5.125 -0.421875 C 4.976562 -0.578125 4.875 -0.789062 4.8125 -1.0625 C 4.613281 -0.695312 4.390625 -0.429688 4.140625 -0.265625 C 3.890625 -0.0976562 3.566406 -0.015625 3.171875 -0.015625 C 3.046875 -0.015625 2.921875 -0.03125 2.796875 -0.0625 C 2.679688 -0.09375 2.566406 -0.144531 2.453125 -0.21875 C 2.347656 -0.289062 2.25 -0.390625 2.15625 -0.515625 C 2.0625 -0.640625 1.976562 -0.796875 1.90625 -0.984375 C 1.800781 -0.796875 1.679688 -0.640625 1.546875 -0.515625 C 1.410156 -0.390625 1.265625 -0.285156 1.109375 -0.203125 C 0.953125 -0.128906 0.796875 -0.078125 0.640625 -0.046875 C 0.484375 -0.015625 0.335938 0 0.203125 0 L -0.09375 0 C -0.195312 0 -0.273438 -0.0234375 -0.328125 -0.078125 C -0.390625 -0.128906 -0.4375 -0.191406 -0.46875 -0.265625 C -0.5 -0.347656 -0.515625 -0.429688 -0.515625 -0.515625 C -0.523438 -0.597656 -0.53125 -0.671875 -0.53125 -0.734375 C -0.53125 -0.804688 -0.523438 -0.890625 -0.515625 -0.984375 C -0.515625 -1.085938 -0.5 -1.1875 -0.46875 -1.28125 C -0.4375 -1.375 -0.390625 -1.457031 -0.328125 -1.53125 C -0.273438 -1.601562 -0.195312 -1.640625 -0.09375 -1.640625 L 0.203125 -1.640625 C 0.484375 -1.640625 0.722656 -1.671875 0.921875 -1.734375 C 1.128906 -1.796875 1.300781 -1.875 1.4375 -1.96875 C 1.570312 -2.0625 1.679688 -2.164062 1.765625 -2.28125 C 1.859375 -2.394531 1.929688 -2.5 1.984375 -2.59375 C 2.046875 -2.695312 2.09375 -2.78125 2.125 -2.84375 C 2.164062 -2.90625 2.203125 -2.9375 2.234375 -2.9375 C 2.296875 -2.9375 2.34375 -2.90625 2.375 -2.84375 C 2.40625 -2.78125 2.429688 -2.703125 2.453125 -2.609375 C 2.472656 -2.515625 2.492188 -2.410156 2.515625 -2.296875 C 2.546875 -2.191406 2.59375 -2.09375 2.65625 -2 C 2.726562 -1.90625 2.820312 -1.828125 2.9375 -1.765625 C 3.0625 -1.703125 3.226562 -1.671875 3.4375 -1.671875 C 3.65625 -1.671875 3.847656 -1.707031 4.015625 -1.78125 C 4.179688 -1.851562 4.328125 -1.941406 4.453125 -2.046875 C 4.578125 -2.148438 4.679688 -2.257812 4.765625 -2.375 C 4.859375 -2.5 4.929688 -2.613281 4.984375 -2.71875 C 5.046875 -2.832031 5.09375 -2.925781 5.125 -3 C 5.164062 -3.070312 5.203125 -3.109375 5.234375 -3.109375 C 5.328125 -3.109375 5.382812 -3.09375 5.40625 -3.0625 C 5.4375 -3.03125 5.457031 -2.972656 5.46875 -2.890625 C 5.46875 -2.847656 5.472656 -2.773438 5.484375 -2.671875 C 5.492188 -2.578125 5.519531 -2.476562 5.5625 -2.375 C 5.601562 -2.269531 5.660156 -2.175781 5.734375 -2.09375 C 5.804688 -2.019531 5.914062 -1.984375 6.0625 -1.984375 C 6.257812 -1.984375 6.421875 -2.039062 6.546875 -2.15625 C 6.671875 -2.28125 6.769531 -2.414062 6.84375 -2.5625 C 6.925781 -2.707031 6.988281 -2.835938 7.03125 -2.953125 C 7.082031 -3.078125 7.125 -3.140625 7.15625 -3.140625 C 7.300781 -3.140625 7.375 -3.078125 7.375 -2.953125 C 7.375 -2.859375 7.398438 -2.738281 7.453125 -2.59375 C 7.515625 -2.445312 7.597656 -2.300781 7.703125 -2.15625 C 7.804688 -2.019531 7.9375 -1.898438 8.09375 -1.796875 C 8.25 -1.691406 8.429688 -1.640625 8.640625 -1.640625 L 8.9375 -1.640625 C 9.039062 -1.640625 9.113281 -1.601562 9.15625 -1.53125 C 9.207031 -1.457031 9.242188 -1.375 9.265625 -1.28125 C 9.285156 -1.1875 9.296875 -1.085938 9.296875 -0.984375 C 9.296875 -0.890625 9.296875 -0.804688 9.296875 -0.734375 Z M 9.296875 -0.734375 " id="path77" />
			</g>
		</g>
	</g>
	<g fill="#f05e2c" fill-opacity="1" id="g83">
		<g transform="translate(266.838279, 222.49489)" id="g82">
			<g id="g81">
				<path d="M 3.453125 0 C 3.210938 0 3.007812 -0.0351562 2.84375 -0.109375 C 2.675781 -0.179688 2.53125 -0.285156 2.40625 -0.421875 C 2.289062 -0.554688 2.1875 -0.71875 2.09375 -0.90625 C 2.007812 -1.101562 1.925781 -1.320312 1.84375 -1.5625 C 1.769531 -1.28125 1.6875 -1.039062 1.59375 -0.84375 C 1.5 -0.644531 1.382812 -0.484375 1.25 -0.359375 C 1.125 -0.234375 0.972656 -0.140625 0.796875 -0.078125 C 0.617188 -0.0234375 0.410156 0 0.171875 0 L -0.140625 0 C -0.203125 0 -0.257812 -0.0078125 -0.3125 -0.03125 C -0.363281 -0.0507812 -0.40625 -0.0859375 -0.4375 -0.140625 C -0.46875 -0.203125 -0.488281 -0.285156 -0.5 -0.390625 C -0.519531 -0.503906 -0.53125 -0.648438 -0.53125 -0.828125 C -0.53125 -1.085938 -0.5 -1.285156 -0.4375 -1.421875 C -0.375 -1.566406 -0.273438 -1.640625 -0.140625 -1.640625 L 0.171875 -1.640625 C 0.378906 -1.640625 0.554688 -1.65625 0.703125 -1.6875 C 0.847656 -1.71875 0.976562 -1.773438 1.09375 -1.859375 C 1.1875 -1.929688 1.257812 -2.035156 1.3125 -2.171875 C 1.363281 -2.316406 1.40625 -2.476562 1.4375 -2.65625 C 1.46875 -2.832031 1.488281 -3.019531 1.5 -3.21875 C 1.507812 -3.414062 1.515625 -3.601562 1.515625 -3.78125 C 1.515625 -4.070312 1.5 -4.375 1.46875 -4.6875 C 1.4375 -5.007812 1.398438 -5.316406 1.359375 -5.609375 C 1.328125 -5.898438 1.296875 -6.160156 1.265625 -6.390625 C 1.234375 -6.617188 1.21875 -6.789062 1.21875 -6.90625 C 1.21875 -7.070312 1.242188 -7.226562 1.296875 -7.375 C 1.359375 -7.53125 1.425781 -7.664062 1.5 -7.78125 C 1.582031 -7.90625 1.664062 -8.003906 1.75 -8.078125 C 1.84375 -8.148438 1.921875 -8.1875 1.984375 -8.1875 C 2.066406 -8.1875 2.125 -8.125 2.15625 -8 C 2.195312 -7.882812 2.222656 -7.734375 2.234375 -7.546875 C 2.253906 -7.234375 2.269531 -6.890625 2.28125 -6.515625 C 2.289062 -6.148438 2.300781 -5.78125 2.3125 -5.40625 C 2.332031 -5.03125 2.347656 -4.664062 2.359375 -4.3125 C 2.378906 -3.96875 2.398438 -3.660156 2.421875 -3.390625 C 2.441406 -3.054688 2.472656 -2.773438 2.515625 -2.546875 C 2.554688 -2.328125 2.613281 -2.148438 2.6875 -2.015625 C 2.769531 -1.878906 2.867188 -1.78125 2.984375 -1.71875 C 3.109375 -1.664062 3.265625 -1.640625 3.453125 -1.640625 L 3.765625 -1.640625 C 3.816406 -1.640625 3.867188 -1.628906 3.921875 -1.609375 C 3.972656 -1.585938 4.015625 -1.546875 4.046875 -1.484375 C 4.085938 -1.421875 4.113281 -1.335938 4.125 -1.234375 C 4.144531 -1.128906 4.15625 -0.992188 4.15625 -0.828125 C 4.15625 -0.546875 4.117188 -0.335938 4.046875 -0.203125 C 3.972656 -0.0664062 3.878906 0 3.765625 0 Z M 3.453125 0 " id="path80" />
			</g>
		</g>
	</g>
	<g fill="#f05e2c" fill-opacity="1" id="g86">
		<g transform="translate(270.454352, 222.49489)" id="g85">
			<g id="g84">
				<path d="M 2.3125 -3.15625 C 2.3125 -3.09375 2.304688 -3.003906 2.296875 -2.890625 C 2.285156 -2.785156 2.269531 -2.671875 2.25 -2.546875 C 2.226562 -2.421875 2.195312 -2.285156 2.15625 -2.140625 C 2.125 -1.992188 2.082031 -1.847656 2.03125 -1.703125 C 1.957031 -1.515625 1.863281 -1.316406 1.75 -1.109375 C 1.644531 -0.910156 1.519531 -0.726562 1.375 -0.5625 C 1.226562 -0.394531 1.054688 -0.257812 0.859375 -0.15625 C 0.671875 -0.0507812 0.457031 0 0.21875 0 L -0.09375 0 C -0.195312 0 -0.273438 -0.015625 -0.328125 -0.046875 C -0.390625 -0.0859375 -0.4375 -0.140625 -0.46875 -0.203125 C -0.5 -0.273438 -0.515625 -0.363281 -0.515625 -0.46875 C -0.523438 -0.570312 -0.53125 -0.691406 -0.53125 -0.828125 C -0.53125 -0.921875 -0.523438 -1.015625 -0.515625 -1.109375 C -0.515625 -1.210938 -0.5 -1.300781 -0.46875 -1.375 C -0.4375 -1.457031 -0.390625 -1.519531 -0.328125 -1.5625 C -0.273438 -1.613281 -0.195312 -1.640625 -0.09375 -1.640625 L 0.21875 -1.640625 C 0.414062 -1.640625 0.597656 -1.648438 0.765625 -1.671875 C 0.941406 -1.703125 1.09375 -1.753906 1.21875 -1.828125 C 1.34375 -1.898438 1.441406 -1.992188 1.515625 -2.109375 C 1.585938 -2.222656 1.625 -2.363281 1.625 -2.53125 C 1.625 -2.632812 1.601562 -2.789062 1.5625 -3 C 1.53125 -3.21875 1.484375 -3.46875 1.421875 -3.75 C 1.359375 -4.039062 1.296875 -4.347656 1.234375 -4.671875 C 1.171875 -4.992188 1.109375 -5.3125 1.046875 -5.625 C 0.984375 -5.9375 0.929688 -6.234375 0.890625 -6.515625 C 0.859375 -6.796875 0.84375 -7.039062 0.84375 -7.25 C 0.84375 -7.382812 0.867188 -7.523438 0.921875 -7.671875 C 0.972656 -7.816406 1.039062 -7.945312 1.125 -8.0625 C 1.207031 -8.1875 1.296875 -8.285156 1.390625 -8.359375 C 1.492188 -8.429688 1.582031 -8.46875 1.65625 -8.46875 C 1.664062 -8.46875 1.691406 -8.4375 1.734375 -8.375 C 1.785156 -8.320312 1.84375 -8.253906 1.90625 -8.171875 C 1.976562 -8.085938 2.050781 -7.992188 2.125 -7.890625 C 2.207031 -7.796875 2.28125 -7.707031 2.34375 -7.625 C 2.414062 -7.539062 2.472656 -7.46875 2.515625 -7.40625 C 2.554688 -7.34375 2.578125 -7.3125 2.578125 -7.3125 C 2.578125 -7.300781 2.550781 -7.273438 2.5 -7.234375 C 2.457031 -7.191406 2.40625 -7.132812 2.34375 -7.0625 C 2.28125 -6.988281 2.222656 -6.898438 2.171875 -6.796875 C 2.117188 -6.691406 2.09375 -6.578125 2.09375 -6.453125 C 2.09375 -6.242188 2.101562 -5.992188 2.125 -5.703125 C 2.144531 -5.421875 2.171875 -5.128906 2.203125 -4.828125 C 2.234375 -4.523438 2.257812 -4.226562 2.28125 -3.9375 C 2.300781 -3.644531 2.3125 -3.382812 2.3125 -3.15625 Z M 2.3125 -3.15625 " id="path83" />
			</g>
		</g>
	</g>
</svg>